<svg xmlns="http://www.w3.org/2000/svg" viewBox="0 0 300 300" enable-background="new 0 0 300 300"><g transform="translate(16 16)"><path fill="#ea4335" d="m137 43c27.9 0 46.7 12 57.4 22.1l41.9-40.9c-25.8-23.9-59.3-38.6-99.3-38.6-58 0-108.2 33.3-132.6 81.8l48 37.3c12-35.8 45.3-61.7 84.6-61.7"/><path fill="#4285f4" d="m279.4 137.3c0-12.2-1-21.1-3.1-30.3h-139.3v55h81.8c-1.6 13.7-10.6 34.3-30.3 48.1l46.8 36.3c28-25.8 44.1-63.9 44.1-109.1"/><path fill="#fbbc05" d="m52.5 163.3c-3.1-9.2-4.9-19.1-4.9-29.3s1.8-20.1 4.8-29.3l-48-37.3c-10.1 20.1-15.8 42.7-15.8 66.6s5.8 46.5 15.8 66.6l48.1-37.3"/><path fill="#34a853" d="m137 282.4c40.1 0 73.7-13.2 98.3-35.9l-46.8-36.3c-12.5 8.7-29.3 14.8-51.4 14.8-39.2 0-72.5-25.9-84.4-61.7l-48 37.3c24.3 48.5 74.2 81.8 132.3 81.8"/></g></svg>