<?xml version="1.0" encoding="utf-8"?>
<!-- Generator: Adobe Illustrator 18.1.1, SVG Export Plug-In . SVG Version: 6.00 Build 0)  -->
<svg version="1.1" id="Layer_1" xmlns="http://www.w3.org/2000/svg" xmlns:xlink="http://www.w3.org/1999/xlink" x="0px" y="0px"
	 viewBox="0 0 300 300" enable-background="new 0 0 300 300" xml:space="preserve">
<g transform="translate(18.08 10.966)">
	<path fill="#353635" d="M135.2,29.6c4.8,0,8.8,12.6,8.8,27.9v10.6c0,15.4-4,27.9-8.8,27.9c-4.8,0-8.8-12.6-8.8-27.9V57.5
		C126.5,42,130.4,29.6,135.2,29.6"/>
	<g transform="matrix(.98769-.15643.15643.98769 4.759 2.142)">
		<path fill="#3DB66B" d="M111.4,76.9c-13.2,13.1-39.5,8.6-58.5-10.1C20.7,34.9,29.5-4.1,29.5-4.1s38.5-9.4,71.7,23.3
			C120,37.9,124.6,63.6,111.4,76.9"/>
		<path fill="#38A462" d="M111.4,76.9c-13.2,13.1-39.5,8.6-58.5-10.1C20.7,34.9,29.5-4.1,29.5-4.1"/>
	</g>
	<g transform="translate(0 17.311)">
		<path fill="#7FB850" d="M101,68c-3.8-0.5-7.6-0.7-11.4-0.7c-40.2,0.8-73.2,33.4-74.7,73.7c-1.7,43.6,42.1,125.1,85.3,125.1l31.7-3
			V70C121.5,70,111.3,69.3,101,68"/>
		<g>
			<path fill="#90C95B" d="M162.8,68c3.8-0.5,7.6-0.7,11.4-0.7c40.2,0.8,73.2,33.4,74.7,73.7c1.7,43.6-42.1,125.1-85.3,125.1
				c0,0-31.7-3-31.7-3.1V70C142.2,70,152.6,69.3,162.8,68"/>
			<path fill="#90C95B" d="M131.9,70c0,0-36.2,26.1-36.2,94.7s36.2,98.3,36.2,98.3l45.8-126.6l-36.8-56.7"/>
		</g>
	</g>
</g>
</svg>
