<?xml version="1.0" encoding="UTF-8" standalone="no"?>
<svg width="114px" height="21px" viewBox="0 0 114 21" version="1.1" xmlns="http://www.w3.org/2000/svg" xmlns:xlink="http://www.w3.org/1999/xlink" xmlns:sketch="http://www.bohemiancoding.com/sketch/ns">
    <!-- Generator: Sketch 3.3.3 (12081) - http://www.bohemiancoding.com/sketch -->
    <title>Remind logo</title>
    <desc>Created with Sketch.</desc>
    <defs></defs>
    <g id="Page-1" stroke="none" stroke-width="1" fill="none" fill-rule="evenodd" sketch:type="MSPage">
        <g id="sign-in-blocker-modal" sketch:type="MSArtboardGroup" transform="translate(-22.000000, -16.000000)" fill="#FFFFFF">
            <g id="Global-Header-+-Footer" sketch:type="MSLayerGroup">
                <g id="Global-Header" sketch:type="MSShapeGroup">
                    <g id="Remind-logo" transform="translate(22.000000, 16.000000)">
                        <path d="M37.0829531,5.77383333 C36.3570938,5.58775 35.641625,5.48945833 34.8949844,5.48945833 C31.7807656,5.48945833 29.984375,7.3395 29.984375,10.4384583 L29.984375,17.9795 C29.984375,18.2641667 30.0387031,18.375 30.3284531,18.375 L31.8508281,18.375 C32.1405781,18.375 32.359375,18.2641667 32.359375,17.9795 L32.359375,10.3448333 C32.359375,8.03308333 34.2519531,7.78341667 35.074,7.78341667 C35.5017969,7.78341667 36.0355781,7.86158333 36.5693594,8.00041667 C36.8781094,8.04416667 37.076125,7.91204167 37.1114531,7.66120833 L37.42525,6.35745833 C37.5395469,5.96370833 37.2082344,5.82516667 37.0829531,5.77383333 Z M45.4002031,5.36491667 C41.3190625,5.36491667 38.6819219,8.00479167 38.6819219,12.089875 C38.6819219,16.1749583 41.3190625,18.8148333 45.4002031,18.8148333 C47.5350313,18.8148333 49.2729375,18.0885833 50.5693906,16.65125 C50.6462813,16.55675 50.6774531,16.4432917 50.6572656,16.331875 C50.6352969,16.21375 50.5569219,16.107 50.4349063,16.03525 L49.1271719,15.3775417 C48.8593906,15.2646667 48.6135781,15.3087083 48.4268438,15.4921667 C47.7092969,16.1364583 46.5776094,16.520875 45.4002031,16.520875 C42.9334688,16.520875 41.3995156,15.071875 41.1620156,12.5416667 L51.6488281,12.5416667 C51.8744531,12.5416667 52.0736563,12.471375 52.1116563,12.254375 C52.1178906,12.2196667 52.1184844,11.9889583 52.1184844,11.9860417 C52.119375,9.923375 51.4475469,8.23083333 50.1748438,7.046375 C48.9760625,5.93104167 47.3251406,5.36491667 45.4002031,5.36491667 Z M41.3350938,10.5 C41.3383594,10.4892083 41.3413281,10.4775417 41.3445938,10.4670417 C41.8721406,8.65608333 43.3122813,7.671125 45.4002031,7.671125 C47.4504219,7.671125 48.8748281,8.45833333 49.4273125,10.5 L41.3350938,10.5 Z M81.1706719,5.83333333 L79.4387031,5.83333333 C79.1792344,5.83333333 78.96875,6.03983333 78.96875,6.29475 L78.96875,17.9135833 C78.96875,18.1685 79.1792344,18.375 79.4387031,18.375 L81.1706719,18.375 C81.4301406,18.375 81.640625,18.1685 81.640625,17.9135833 L81.640625,6.29475 C81.640625,6.03983333 81.4301406,5.83333333 81.1706719,5.83333333 Z M113.647609,0 L112.125234,0 C111.835484,0 111.625,0.298666667 111.625,0.583333333 L111.625,6.64125 C110.666094,5.53233333 109.035359,5.10708333 107.291812,5.07325 C107.222047,5.0715 107.160297,5.07091667 107.091125,5.07091667 C103.192266,5.07091667 100.677141,7.71166667 100.677141,11.7982083 C100.677141,15.694875 103.445797,18.5231667 107.338719,18.5231667 C111.356922,18.5231667 114,15.8205833 114,11.7982083 L114,0.583333333 C114,0.298666667 113.937359,0 113.647609,0 Z M107.399281,16.2292083 C104.734234,16.2292083 103.142687,14.5728333 103.142687,11.7982083 C103.142687,8.98216667 104.694156,7.36720833 107.399281,7.36720833 C110.048891,7.36720833 111.560578,8.9425 111.655578,11.7982083 C111.655578,14.5728333 110.064625,16.2292083 107.399281,16.2292083 Z M69.3874062,5.36491667 C67.41675,5.36491667 65.8257969,6.104 64.9025156,7.45033333 C63.9151094,6.08504167 62.3217813,5.36491667 60.3808125,5.36491667 C56.8094063,5.36491667 54.625,7.54104167 54.625,11.1862917 L54.625,17.9795 C54.625,18.2641667 54.9005,18.375 55.19025,18.375 L56.712625,18.375 C57.002375,18.375 57.296875,18.2641667 57.296875,17.9795 L57.296875,11.1862917 C57.296875,8.27108333 59.0837656,7.658875 60.5625,7.658875 C61.6754844,7.658875 63.53125,8.80775 63.53125,10.143 L63.53125,17.9713333 C63.53125,18.2259583 63.7417344,18.375 64.0012031,18.375 L65.7331719,18.375 C65.9926406,18.375 66.203125,18.2259583 66.203125,17.9713333 L66.203125,10.1327917 C66.203125,8.743875 67.6616719,7.658875 69.171875,7.658875 C70.6506094,7.658875 72.4375,8.27108333 72.4375,11.1862917 L72.4375,17.9795 C72.4375,18.2641667 72.7895937,18.375 73.0793438,18.375 L74.6017188,18.375 C74.8914688,18.375 75.109375,18.2641667 75.109375,17.9795 L75.109375,11.1862917 C75.109375,7.54104167 72.9585156,5.36491667 69.3874062,5.36491667 Z M91.5859375,5.36491667 C87.7170625,5.36608333 85.203125,7.79916667 85.203125,11.7156667 L85.203125,17.9795 C85.203125,18.2641667 85.5466094,18.375 85.8360625,18.375 L87.3587344,18.375 C87.6487812,18.375 87.875,18.2641667 87.875,17.9795 L87.875,11.7156667 C87.875,8.140125 90.551625,7.98904167 91.5859375,7.95375 C92.62025,7.98904167 95.296875,8.140125 95.296875,11.7156667 L95.296875,17.9795 C95.296875,18.2641667 95.5183437,18.375 95.8080937,18.375 L97.3310625,18.375 C97.6205156,18.375 97.96875,18.2641667 97.96875,17.9795 L97.96875,11.7156667 C97.96875,7.79916667 95.4545156,5.36608333 91.5859375,5.36491667 Z" id="Fill-19"></path>
                        <path d="M20.3139687,4.59783333 C18.8275156,2.73904167 16.0075,1.48341667 12.7706719,1.48341667 C8.79729687,1.48341667 5.45121875,3.374875 4.43145312,5.95233333 C1.9011875,6.83929167 0.089953125,9.21316667 0.089953125,12.0035417 C0.089953125,15.551375 3.0174375,18.4275 6.62892187,18.4275 C7.90578125,18.4275 9.09654687,18.0664167 10.1035469,17.4445833 L10.4131875,20.244 C10.4844375,20.888 11.3210312,21.1140417 11.7176562,20.596625 L14.5495469,16.89975 C14.765375,16.9332917 14.9847656,16.95575 15.2103906,16.95575 C16.9966875,16.95575 18.5187656,15.8585 19.1264687,14.3144167 C22.2017969,14.1359167 24.6323125,11.993625 24.6323125,9.370375 C24.6323125,7.09595833 22.8041562,5.1835 20.3139687,4.59783333" id="Fill-18"></path>
                    </g>
                </g>
            </g>
        </g>
    </g>
</svg>