<?xml version="1.0" encoding="utf-8"?>
<!-- Generator: Adobe Illustrator 18.1.1, SVG Export Plug-In . SVG Version: 6.00 Build 0)  -->
<svg version="1.1" id="Layer_1" xmlns="http://www.w3.org/2000/svg" xmlns:xlink="http://www.w3.org/1999/xlink" x="0px" y="0px"
	 viewBox="0 0 300 300" enable-background="new 0 0 300 300" xml:space="preserve">
<g>
	<path fill="#DC5030" d="M225.4,19.4c26.7,2.7,64.8,27.3,68.5,74.8v15.8c-3.5,45.4-44.4,101.3-143.8,171.3
		C50.6,211.1,9.8,155.1,6.2,109.9V94.2C10,46.9,47.9,22.1,74.6,19.4c4.4-0.4,8.5-0.6,12.5-0.6c31,0,46,13.5,62.9,33.8
		c16.9-20.4,31.9-33.8,62.9-33.8C216.7,18.6,221,18.8,225.4,19.4"/>
	<path fill="#BB4328" d="M150,281.3C50.6,211.1,9.8,155.1,6.2,109.9V94.2C10,46.9,47.9,22.1,74.6,19.4c4.4-0.4,8.5-0.6,12.5-0.6
		c31,0,46,13.5,62.9,33.8V281.3"/>
</g>
</svg>
