<?xml version="1.0" encoding="utf-8"?>
<!-- Generator: Adobe Illustrator 18.1.1, SVG Export Plug-In . SVG Version: 6.00 Build 0)  -->
<svg version="1.1" id="Layer_1" xmlns="http://www.w3.org/2000/svg" xmlns:xlink="http://www.w3.org/1999/xlink" x="0px" y="0px"
	 viewBox="0 0 300 300" enable-background="new 0 0 300 300" xml:space="preserve">
<g>
	<path fill="#D6807D" d="M213.2,25.6l61.2,61.2c12.1,12.1,12.1,31.8,0,43.9L239,166.3c-12.1,12.1-31.8,12.1-43.9,0l-61.2-61.2
		c-12.1-12.1-12.1-31.8,0-43.9l35.5-35.5C181.5,13.4,201.2,13.6,213.2,25.6"/>
	<path fill="#C97572" d="M213.2,25.6l8.7,8.7c12.1,12.1,12.1,31.8,0,43.9l-35.5,35.5c-12.1,12.1-31.8,12.1-43.9,0l-8.7-8.7
		c-12.1-12.1-12.1-31.8,0-43.9l35.5-35.5C181.5,13.4,201.2,13.6,213.2,25.6"/>
	<path fill="#E6C61F" d="M142.5,52.4l105,105L127.5,277.5l-105-105L142.5,52.4z"/>
	<path fill="#EFECE6" d="M162.8,32.1l105,105l-20.4,20.4l-105-105L162.8,32.1z"/>
	<path fill="#DAD6CE" d="M162.8,32.1l52.5,52.5l-20.4,20.4l-52.5-52.5L162.8,32.1z"/>
	<path fill="#DBBC26" d="M142.5,52.4l52.5,52.5L75,225l-52.5-52.5L142.5,52.4z"/>
	<path fill="#EFECE6" d="M11.4,276L27,288.4l100.4-10.9l-105-105L11.4,276z"/>
	<path fill="#DAD6CE" d="M11.1,278.7c-0.6,6.4,2.3,7.8,6.9,3.2l56.8-56.8l-52.5-52.5L11.1,278.7"/>
	<path opacity="0.98" fill="#31333A" enable-background="new    " d="M15.6,237.1l-4.4,41.6c-0.6,6.4,3.9,10.9,10.3,10.3
		c0,0,23.8-2.5,41.6-4.4L15.6,237.1"/>
</g>
</svg>
