<svg xmlns="http://www.w3.org/2000/svg" viewBox="0 0 300 300" enable-background="new 0 0 300 300"><path fill="#4a89dc" d="m291.9 80.4l-141.9.1-141.9-.1c-2.3 0-4.2 2-4.1 4.3l3.2 156.3c.3 4.7 4.1 8.3 8.8 8.3h132.9 2.2 132.9c4.7 0 8.5-3.7 8.8-8.3l3.2-156.3c.1-2.3-1.7-4.3-4.1-4.3"/><circle fill="#347ac6" cx="150" cy="230.1" r="27.1"/><circle fill="#1866a0" cx="150" cy="230.1" r="17.8"/><path fill="#fff" d="m149.8 69.9v165.6c.2.2.4.3.4.3v-165.6c0 0-.1-.1-.4-.3"/><path fill="#e4f1fd" d="m149.8 69.9v165.6c.2.2.4.3.4.3v-165.6c0 0-.1-.1-.4-.3"/><g fill="#d6e5f4"><path d="m151.1 76.8h-134.3l5 159h129.3z"/><path d="m148.9 76.8h134.3l-5 159h-129.3z"/></g><g fill="#f7f8f9"><path d="m150.3 66.4c-6.9-4.9-53.2-34.5-112.3.6 0 0-13.5 8.9-22 0 0 0 3 156.1 4.3 170.6 6.9.4 13.6-3.9 13.6-3.9 59.3-35.3 109.2-3.8 116.4 1.4v-168.7"/><path d="m149.7 66.4c6.9-4.9 53.2-34.5 112.3.6 0 0 13.5 8.9 22 0 0 0-3 156.1-4.3 170.6-6.9.4-13.6-3.9-13.6-3.9-59.3-35.3-109.2-3.8-116.4 1.4v-168.7"/></g><g fill="#e6ecef"><path d="m114.6 51.9v168c19.2 4.4 32.3 12.8 35.7 15.2v-168.7c-3.4-2.4-16.4-10.8-35.7-14.5"/><path d="m185.7 51.9v168c-19.2 4.4-32.3 12.8-35.7 15.2v-168.7c3.4-2.4 16.3-10.8 35.7-14.5"/></g><path fill="#aad3e8" d="m198.8 223.2c-20.1 0-38 4.9-49.7 12.5h99.4c-11.7-7.6-29.6-12.5-49.7-12.5"/><path fill="#83b0cc" d="m151.7 235.8h68.8c-4.6-2.8-18.3-4.9-34.4-4.9s-29.8 2-34.4 4.9"/><path fill="#aad3e8" d="m100.3 223.2c20.1 0 38 4.9 49.7 12.5h-99.4c11.7-7.6 29.6-12.5 49.7-12.5"/><path fill="#83b0cc" d="m147.4 235.8h-68.8c4.6-2.8 18.3-4.9 34.4-4.9s29.7 2 34.4 4.9"/><path fill="#d0d4d6" d="m151.4 65.3h-.2c-.5.3-.9.6-1.3.9-.3-.2-.8-.5-1.3-.9h-.2v168.6c.4.3.8.6 1.2.8v.4c.1-.1.2-.1.3-.2.1.1.2.1.3.2v-.4c.3-.2.7-.5 1.2-.8v-168.6"/><g fill="#b8cddd"><path d="m130.6 94l-13.1-2.9c-.8-.2-1.6-.3-2.4-.5-13.2-2.6-26.7-2.3-39.8.4l-29.9 6.1c-1.1.2-1.8 1.2-1.8 2.3 0 1.5 1.3 2.5 2.8 2.3l29-5.9c13.1-2.7 26.6-3 39.8-.4.8.2 1.6.3 2.4.5l12.1 2.7c1.4.3 2.8-.8 2.8-2.2-.1-1.2-.8-2.2-1.9-2.4"/><path d="m130.6 116.1l-13.1-2.9c-.8-.2-1.6-.3-2.4-.5-13.1-2.6-26.7-2.2-39.8.4l-29.9 6.1c-1.1.2-1.8 1.2-1.8 2.3 0 1.5 1.3 2.5 2.8 2.3l29-5.9c13.1-2.7 26.6-3 39.8-.4.8.2 1.6.3 2.4.5l12.1 2.7c1.4.3 2.8-.8 2.8-2.2-.1-1.2-.8-2.1-1.9-2.4"/><path d="m130.6 138.3l-13.1-2.9c-.8-.2-1.6-.3-2.4-.5-13.1-2.6-26.7-2.2-39.8.4l-29.9 6.1c-1.1.2-1.8 1.2-1.8 2.3 0 1.5 1.3 2.5 2.8 2.3l29-5.9c13.1-2.7 26.6-3 39.8-.4.8.2 1.6.3 2.4.5l12.1 2.7c1.4.3 2.8-.8 2.8-2.2-.1-1.2-.8-2.2-1.9-2.4"/><path d="m130.6 160.4l-13.1-2.9c-.8-.2-1.6-.3-2.4-.5-13.1-2.6-26.7-2.2-39.8.4l-29.9 6.1c-1.1.2-1.8 1.2-1.8 2.3 0 1.5 1.3 2.5 2.8 2.3l29-5.9c13.1-2.7 26.6-3 39.8-.4.8.2 1.6.3 2.4.5l12.1 2.7c1.4.3 2.8-.8 2.8-2.2-.1-1.2-.8-2.1-1.9-2.4"/><path d="m130.6 182.6l-13.1-2.9c-.8-.2-1.6-.3-2.4-.5-13.1-2.6-26.7-2.2-39.8.4l-29.9 6.1c-1.1.2-1.8 1.2-1.8 2.3 0 1.5 1.3 2.5 2.8 2.3l29-5.9c13.1-2.7 26.6-3 39.8-.4.8.2 1.6.3 2.4.5l12.1 2.7c1.4.3 2.8-.8 2.8-2.2-.1-1.2-.8-2.2-1.9-2.4"/><path d="m255.6 97.1l-29.9-6.1c-13.1-2.7-26.6-3-39.8-.4-.8.2-1.6.3-2.4.5l-13.2 2.9c-1.1.2-1.8 1.2-1.8 2.2 0 1.5 1.4 2.6 2.8 2.2l12.1-2.7c.8-.2 1.6-.3 2.4-.5 13.1-2.6 26.7-2.2 39.8.4l29 5.9c1.4.3 2.8-.8 2.8-2.3 0-.9-.8-1.8-1.8-2.1"/><path d="m255.6 119.3l-29.9-6.1c-13.1-2.7-26.6-3-39.8-.4-.8.2-1.6.3-2.4.5l-13.1 2.9c-1.1.2-1.8 1.2-1.8 2.2 0 1.5 1.4 2.6 2.8 2.2l12.1-2.7c.8-.2 1.6-.3 2.4-.5 13.1-2.6 26.7-2.2 39.8.4l29 5.9c1.4.3 2.8-.8 2.8-2.3-.1-.9-.9-1.9-1.9-2.1"/><path d="m255.6 141.5l-29.9-6.1c-13.1-2.7-26.6-3-39.8-.4-.8.2-1.6.3-2.4.5l-13.1 2.9c-1.1.2-1.8 1.2-1.8 2.2 0 1.5 1.4 2.6 2.8 2.2l12.1-2.7c.8-.2 1.6-.3 2.4-.5 13.1-2.6 26.7-2.2 39.8.4l29 5.9c1.4.3 2.8-.8 2.8-2.3-.1-1-.9-1.9-1.9-2.1"/><path d="m255.6 163.6l-29.9-6.1c-13.1-2.7-26.6-3-39.8-.4-.8.2-1.6.3-2.4.5l-13.1 2.9c-1.1.2-1.8 1.2-1.8 2.2 0 1.5 1.4 2.6 2.8 2.2l12.1-2.7c.8-.2 1.6-.3 2.4-.5 13.1-2.6 26.7-2.2 39.8.4l29 5.9c1.4.3 2.8-.8 2.8-2.3-.1-.9-.9-1.9-1.9-2.1"/><path d="m255.6 185.8l-29.9-6.1c-13.1-2.7-26.6-3-39.8-.4-.8.2-1.6.3-2.4.5l-13.1 2.9c-1.1.2-1.8 1.2-1.8 2.2 0 1.5 1.4 2.6 2.8 2.2l12.1-2.7c.8-.2 1.6-.3 2.4-.5 13.1-2.6 26.7-2.2 39.8.4l29 5.9c1.4.3 2.8-.8 2.8-2.3-.1-1-.9-1.9-1.9-2.1"/></g><path fill="#8ecc5a" d="m236.4 105.2v-55c-9.6-3.2-18.7-4.9-27.2-5.4v60.4l13.6-7.8 13.6 7.8"/></svg>