<?xml version="1.0" encoding="utf-8"?>
<!-- Generator: Adobe Illustrator 16.0.0, SVG Export Plug-In . SVG Version: 6.00 Build 0)  -->
<!DOCTYPE svg PUBLIC "-//W3C//DTD SVG 1.1//EN" "http://www.w3.org/Graphics/SVG/1.1/DTD/svg11.dtd">
<svg version="1.1" id="Layer_1" xmlns="http://www.w3.org/2000/svg" xmlns:xlink="http://www.w3.org/1999/xlink" x="0px" y="0px"
	 width="20px" height="20px" viewBox="0 0 20 20" enable-background="new 0 0 20 20" xml:space="preserve">
<g transform="translate(16 16)">
	<path fill="#EA4335" d="M-5.794-12.132c1.919,0,3.212,0.809,3.948,1.489l2.882-2.755C-0.738-15.009-3.043-16-5.794-16
		c-3.988,0-7.441,2.245-9.119,5.512l3.301,2.513C-10.787-10.387-8.496-12.132-5.794-12.132"/>
	<path fill="#4285F4" d="M4-5.778C4-6.6,3.932-7.2,3.787-7.819h-9.581v3.706h5.626c-0.109,0.922-0.729,2.312-2.084,3.241
		l3.219,2.445C2.893-0.164,4-2.731,4-5.778"/>
	<path fill="#FBBC05" d="M-11.605-4.025c-0.213-0.62-0.337-1.288-0.337-1.975c0-0.688,0.124-1.354,0.33-1.975l-3.301-2.513
		C-15.608-9.133-16-7.61-16-6c0,1.611,0.399,3.134,1.087,4.487L-11.605-4.025"/>
	<path fill="#34A853" d="M-5.794,4c2.758,0,5.069-0.89,6.761-2.419l-3.219-2.447c-0.859,0.588-2.015,0.997-3.535,0.997
		c-2.695,0-4.986-1.745-5.805-4.156l-3.301,2.513C-13.222,1.756-9.789,4-5.794,4"/>
</g>
</svg>
