<?xml version="1.0" encoding="UTF-8" standalone="no"?>
<!-- Generator: Adobe Illustrator 19.0.0, SVG Export Plug-In . SVG Version: 6.00 Build 0)  -->

<svg
   xmlns:dc="http://purl.org/dc/elements/1.1/"
   xmlns:cc="http://creativecommons.org/ns#"
   xmlns:rdf="http://www.w3.org/1999/02/22-rdf-syntax-ns#"
   xmlns:svg="http://www.w3.org/2000/svg"
   xmlns="http://www.w3.org/2000/svg"
   xmlns:sodipodi="http://sodipodi.sourceforge.net/DTD/sodipodi-0.dtd"
   xmlns:inkscape="http://www.inkscape.org/namespaces/inkscape"
   version="1.1"
   id="left"
   x="0px"
   y="0px"
   viewBox="-304 283 191 36"
   style="enable-background:new -304 283 191 36;"
   xml:space="preserve"
   inkscape:version="0.91 r13725"
   sodipodi:docname="logo2.svg"><metadata
   id="metadata3359"><rdf:RDF><cc:Work
       rdf:about=""><dc:format>image/svg+xml</dc:format><dc:type
         rdf:resource="http://purl.org/dc/dcmitype/StillImage" /></cc:Work></rdf:RDF></metadata><defs
   id="defs3357" /><sodipodi:namedview
   pagecolor="#ffffff"
   bordercolor="#666666"
   borderopacity="1"
   objecttolerance="10"
   gridtolerance="10"
   guidetolerance="10"
   inkscape:pageopacity="0"
   inkscape:pageshadow="2"
   inkscape:window-width="1600"
   inkscape:window-height="838"
   id="namedview3355"
   showgrid="false"
   inkscape:zoom="7.539267"
   inkscape:cx="126.11383"
   inkscape:cy="23.305556"
   inkscape:window-x="-8"
   inkscape:window-y="-8"
   inkscape:window-maximized="1"
   inkscape:current-layer="left" />
<style
   type="text/css"
   id="style3337">
	.st0{fill:#FFFFFF;}
	.st1{fill:#519BFF;}
</style>
<g
   id="g3339"
   transform="matrix(1.0007063,0,0,1,0.21371716,0)">
	<path
   class="st0"
   d="m -230.00315,293.2 c -1.0877,-0.3 -2.1754,-0.5 -3.26309,-0.5 -4.62272,0 -7.34196,3.1 -7.34196,8.3 l 0,12.7 c 0,0.5 0.0906,0.7 0.54385,0.7 l 2.26603,0 c 0.45321,0 0.72514,-0.2 0.72514,-0.7 l 0,-12.9 c 0,-3.9 2.80988,-4.3 4.07886,-4.3 0.63449,0 1.45026,0.1 2.26603,0.4 0.45321,0.1 0.72514,-0.1 0.81578,-0.6 l 0.45321,-2.2 c 0.18127,-0.6 -0.36258,-0.9 -0.54385,-0.9 z"
   id="path3341"
   inkscape:connector-curvature="0"
   style="fill:#ffffff" />
	<path
   class="st0"
   d="m -217.49463,292.5 c -6.07299,0 -10.0612,4.4 -10.0612,11.3 0,6.9 3.98821,11.3 10.0612,11.3 3.17244,0 5.80104,-1.2 7.70451,-3.6 0.0906,-0.2 0.18128,-0.3 0.0906,-0.5 0,-0.2 -0.18128,-0.4 -0.36256,-0.5 l -1.99412,-1.1 c -0.36256,-0.2 -0.72512,-0.1 -1.08769,0.2 -1.08769,1.1 -2.80989,1.7 -4.53207,1.7 -3.7163,0 -5.98233,-2.4 -6.3449,-6.7 l 15.68096,0 c 0.36257,0 0.63449,-0.1 0.72514,-0.5 0,-0.1 0,-0.4 0,-0.5 0,-3.5 -0.99706,-6.3 -2.90053,-8.3 -1.63155,-1.9 -4.1695,-2.8 -6.97938,-2.8 z m -6.16362,8.6 c 0.0906,0 0.0906,0 0,0 0.81577,-3.1 2.99116,-4.8 6.07297,-4.8 3.08181,0 5.16656,1.3 6.07297,4.8 l -12.14594,0 z"
   id="path3343"
   inkscape:connector-curvature="0"
   style="fill:#ffffff" />
	<path
   class="st0"
   d="m -163.92556,293.3 -2.6286,0 c -0.36257,0 -0.72514,0.3 -0.72514,0.8 l 0,19.5 c 0,0.4 0.27193,0.8 0.72514,0.8 l 2.6286,0 c 0.36256,0 0.72513,-0.3 0.72513,-0.8 l 0,-19.6 c -0.0906,-0.4 -0.36257,-0.7 -0.72513,-0.7 z"
   id="path3345"
   inkscape:connector-curvature="0"
   style="fill:#ffffff" />
	<path
   class="st0"
   d="m -115.34177,283.4 -2.26603,0 c -0.45321,0 -0.72514,0.5 -0.72514,1 l 0,10.2 c -1.45026,-1.9 -3.89757,-2.6 -6.52617,-2.6 -0.0906,0 -0.18129,0 -0.27192,0 -5.80106,0 -9.608,4.4 -9.608,11.3 0,6.6 4.16951,11.3 9.97056,11.3 5.98233,0 9.97055,-4.5 9.97055,-11.3 l 0,-18.9 c 0,-0.5 -0.0906,-1 -0.54385,-1 z m -9.33606,27.3 c -3.98822,0 -6.3449,-2.8 -6.3449,-7.5 0,-4.7 2.35668,-7.5 6.3449,-7.5 3.98822,0 6.25426,2.6 6.34489,7.5 0,4.7 -2.35667,7.5 -6.34489,7.5 z"
   id="path3347"
   inkscape:connector-curvature="0"
   style="fill:#ffffff" />
	<path
   class="st0"
   d="m -181.60064,292.5 c -2.99117,0 -5.34785,1.2 -6.70747,3.5 -1.45026,-2.3 -3.89758,-3.5 -6.7981,-3.5 -5.34784,0 -8.61093,3.7 -8.61093,9.8 l 0,11.4 c 0,0.5 0.45321,0.7 0.81577,0.7 l 2.35668,0 c 0.4532,0 0.90641,-0.2 0.90641,-0.7 l 0,-11.4 c 0,-4.9 2.71924,-5.9 4.89464,-5.9 1.63154,0 4.44142,1.9 4.44142,4.2 l 0,13.2 c 0,0.4 0.27193,0.7 0.72514,0.7 l 0.18128,0 2.26604,0 0.0906,0 c 0.36256,0 0.72513,-0.3 0.72513,-0.7 l 0,-13.3 c 0,-2.3 2.1754,-4.2 4.44143,-4.2 2.17539,0 4.89464,1 4.89464,5.9 l 0,11.4 c 0,0.5 0.54384,0.7 0.99705,0.7 l 2.26604,0 c 0.4532,0 0.72512,-0.2 0.72512,-0.7 l 0,-11.3 c -0.0906,-6.2 -3.26309,-9.8 -8.61093,-9.8 z"
   id="path3349"
   inkscape:connector-curvature="0"
   style="fill:#ffffff" />
	<path
   class="st0"
   d="m -148.33524,292.5 c -5.80105,0 -9.51735,4.1 -9.51735,10.7 l 0,10.5 c 0,0.5 0.54385,0.7 0.90641,0.7 l 2.26604,0 c 0.45321,0 0.81577,-0.2 0.81577,-0.7 l 0,-10.6 c 0,-6 3.98823,-6.3 5.52913,-6.3 1.5409,0.1 5.52913,0.3 5.52913,6.3 l 0,10.5 c 0,0.5 0.36256,0.7 0.72513,0.7 l 2.26603,0 c 0.45321,0 0.99705,-0.2 0.99705,-0.7 l 0,-10.5 c 0,-6.5 -3.80693,-10.6 -9.51734,-10.6 z"
   id="path3351"
   inkscape:connector-curvature="0"
   style="fill:#ffffff" />
	<path
   class="st1"
   d="m -269.2,291.2 c -2.4,-3.2 -7.1,-5.3 -12.4,-5.3 -6.6,0 -12.1,3.2 -13.8,7.5 -4.2,1.5 -7.2,5.5 -7.2,10.2 0,6 4.8,10.8 10.8,10.8 2.1,0 4.1,-0.6 5.7,-1.7 l 0.5,4.7 c 0.1,1.1 1.5,1.5 2.2,0.6 l 4.7,-6.2 c 0.4,0.1 0.7,0.1 1.1,0.1 3,0 5.5,-1.8 6.5,-4.4 5.1,-0.3 9.1,-3.9 9.1,-8.3 0,-3.8 -3.1,-7 -7.2,-8 z"
   id="path3353"
   inkscape:connector-curvature="0"
   style="fill:#519bff" />
</g>
<text
   xml:space="preserve"
   style="font-style:normal;font-weight:normal;font-size:37.95394897px;line-height:125%;font-family:sans-serif;letter-spacing:0px;word-spacing:0px;fill:#ffffff;fill-opacity:1;stroke:none;stroke-width:1px;stroke-linecap:butt;stroke-linejoin:miter;stroke-opacity:1;"
   x="-275.94986"
   y="298.40372"
   id="text3365"
   sodipodi:linespacing="125%"
   transform="scale(0.94884879,1.0539087)"><tspan
     sodipodi:role="line"
     id="tspan3367"
     x="-275.94986"
     y="298.40372">v</tspan></text>
</svg>