<?xml version="1.0" encoding="utf-8"?>
<!-- Generator: Adobe Illustrator 19.0.0, SVG Export Plug-In . SVG Version: 6.00 Build 0)  -->
<!DOCTYPE svg PUBLIC "-//W3C//DTD SVG 1.1//EN" "http://www.w3.org/Graphics/SVG/1.1/DTD/svg11.dtd">
<svg version="1.1" id="left" xmlns="http://www.w3.org/2000/svg" xmlns:xlink="http://www.w3.org/1999/xlink" x="0px" y="0px"
	 viewBox="-304 283 191 36" style="enable-background:new -304 283 191 36;" xml:space="preserve">
<style type="text/css">
	.st0{fill:#FFFFFF;}
	.st1{fill:#519BFF;}
</style>
<g>
	<path class="st0" d="M-241.5,293.2c-1.2-0.3-2.4-0.5-3.6-0.5c-5.1,0-8.1,3.1-8.1,8.3v12.7c0,0.5,0.1,0.7,0.6,0.7h2.5
		c0.5,0,0.8-0.2,0.8-0.7v-12.9c0-3.9,3.1-4.3,4.5-4.3c0.7,0,1.6,0.1,2.5,0.4c0.5,0.1,0.8-0.1,0.9-0.6l0.5-2.2
		C-240.7,293.5-241.3,293.2-241.5,293.2z"/>
	<path class="st0" d="M-227.7,292.5c-6.7,0-11.1,4.4-11.1,11.3c0,6.9,4.4,11.3,11.1,11.3c3.5,0,6.4-1.2,8.5-3.6
		c0.1-0.2,0.2-0.3,0.1-0.5c0-0.2-0.2-0.4-0.4-0.5l-2.2-1.1c-0.4-0.2-0.8-0.1-1.2,0.2c-1.2,1.1-3.1,1.7-5,1.7c-4.1,0-6.6-2.4-7-6.7
		h17.3c0.4,0,0.7-0.1,0.8-0.5c0-0.1,0-0.4,0-0.5c0-3.5-1.1-6.3-3.2-8.3C-221.8,293.4-224.6,292.5-227.7,292.5z M-234.5,301.1
		C-234.4,301.1-234.4,301.1-234.5,301.1c0.9-3.1,3.3-4.8,6.7-4.8c3.4,0,5.7,1.3,6.7,4.8H-234.5z"/>
	<path class="st0" d="M-168.6,293.3h-2.9c-0.4,0-0.8,0.3-0.8,0.8v19.5c0,0.4,0.3,0.8,0.8,0.8h2.9c0.4,0,0.8-0.3,0.8-0.8V294
		C-167.9,293.6-168.2,293.3-168.6,293.3z"/>
	<path class="st0" d="M-115,283.4h-2.5c-0.5,0-0.8,0.5-0.8,1v10.2c-1.6-1.9-4.3-2.6-7.2-2.6c-0.1,0-0.2,0-0.3,0
		c-6.4,0-10.6,4.4-10.6,11.3c0,6.6,4.6,11.3,11,11.3c6.6,0,11-4.5,11-11.3v-18.9C-114.4,283.9-114.5,283.4-115,283.4z M-125.3,310.7
		c-4.4,0-7-2.8-7-7.5c0-4.7,2.6-7.5,7-7.5s6.9,2.6,7,7.5C-118.3,307.9-120.9,310.7-125.3,310.7z"/>
	<path class="st0" d="M-188.1,292.5c-3.3,0-5.9,1.2-7.4,3.5c-1.6-2.3-4.3-3.5-7.5-3.5c-5.9,0-9.5,3.7-9.5,9.8v11.4
		c0,0.5,0.5,0.7,0.9,0.7h2.6c0.5,0,1-0.2,1-0.7v-11.4c0-4.9,3-5.9,5.4-5.9c1.8,0,4.9,1.9,4.9,4.2v13.2c0,0.4,0.3,0.7,0.8,0.7h0.2
		h2.5h0.1c0.4,0,0.8-0.3,0.8-0.7v-13.3c0-2.3,2.4-4.2,4.9-4.2c2.4,0,5.4,1,5.4,5.9v11.4c0,0.5,0.6,0.7,1.1,0.7h2.5
		c0.5,0,0.8-0.2,0.8-0.7v-11.3C-178.7,296.1-182.2,292.5-188.1,292.5z"/>
	<path class="st0" d="M-151.4,292.5c-6.4,0-10.5,4.1-10.5,10.7v10.5c0,0.5,0.6,0.7,1,0.7h2.5c0.5,0,0.9-0.2,0.9-0.7v-10.6
		c0-6,4.4-6.3,6.1-6.3c1.7,0.1,6.1,0.3,6.1,6.3v10.5c0,0.5,0.4,0.7,0.8,0.7h2.5c0.5,0,1.1-0.2,1.1-0.7v-10.5
		C-140.9,296.6-145.1,292.5-151.4,292.5z"/>
	<path class="st1" d="M-269.2,291.2c-2.4-3.2-7.1-5.3-12.4-5.3c-6.6,0-12.1,3.2-13.8,7.5c-4.2,1.5-7.2,5.5-7.2,10.2
		c0,6,4.8,10.8,10.8,10.8c2.1,0,4.1-0.6,5.7-1.7l0.5,4.7c0.1,1.1,1.5,1.5,2.2,0.6l4.7-6.2c0.4,0.1,0.7,0.1,1.1,0.1
		c3,0,5.5-1.8,6.5-4.4c5.1-0.3,9.1-3.9,9.1-8.3C-262,295.4-265.1,292.2-269.2,291.2z"/>
</g>
</svg>
