<svg xmlns="http://www.w3.org/2000/svg" viewBox="0 0 300 300" enable-background="new 0 0 300 300"><path fill="#36ccb6" d="m292.9 208.1c-12.4-3.1-13.1-20.2-12-32.4 2.9-8 4.4-16.7 4.4-25.7 0-42.2-34.2-76.3-76.3-76.3s-76.3 34.2-76.3 76.3 34.2 76.3 76.3 76.3c17.9 0 34.3-6.1 47.3-16.4 18.4 12.2 54 2.5 36.6-1.8m-58.1-49.2l-21.2 20.8c-.3.2-.6.3-.9.3-.4 0-.7-.1-.9-.3l-21.2-20.8c-10.1-9.9-10.8-20.2-4.3-26.5 6.4-6.3 16.9-6.3 23.4 0 1.2 1.2 2.2 2.5 3 3.9.8-1.4 1.8-2.7 3-3.9 6.5-6.4 16.9-6.4 23.5 0 6.4 6.3 5.8 16.5-4.4 26.5"/><path fill="#4a89dc" d="m91 73.7c-42.2 0-76.3 34.2-76.3 76.3 0 9 1.6 17.6 4.4 25.7 1.1 12.2.4 29.3-12 32.4-17.3 4.3 18.2 14 36.6 1.8 13 10.3 29.4 16.4 47.3 16.4 42.2 0 76.3-34.2 76.3-76.3s-34.2-76.3-76.3-76.3m18.7 86.3c-1.8 4.4-6.1 7.6-11.3 7.6-.7 0-1.3-.1-1.9-.2l-8.2 10.7c-1.1 1.5-3.6.8-3.8-1l-.9-8.1c-2.9 1.8-6.3 2.8-10 2.8-10.4 0-18.8-8.3-18.8-18.5 0-8 5.2-14.9 12.5-17.4 2.9-7.4 12.6-12.9 24-12.9 9.3 0 17.5 3.6 21.7 9 7.2 1.7 12.4 7.2 12.4 13.8.2 7.5-6.8 13.7-15.7 14.2"/><path fill="#0f6d9d" d="m132.7 150c0 18.4 6.5 35.2 17.3 48.4 10.8-13.2 17.3-30 17.3-48.4s-6.5-35.2-17.3-48.4c-10.8 13.2-17.3 30-17.3 48.4"/></svg>